<?xml version="1.0" standalone="no"?>
<!DOCTYPE svg PUBLIC "-//W3C//DTD SVG 20010904//EN"
 "http://www.w3.org/TR/2001/REC-SVG-20010904/DTD/svg10.dtd">
<svg version="1.0" xmlns="http://www.w3.org/2000/svg"
 width="2251.000000pt" height="2251.000000pt" viewBox="0 0 2251.000000 2251.000000"
 preserveAspectRatio="xMidYMid meet">
<metadata>
Created by potrace 1.14, written by Peter Selinger 2001-2017
</metadata>
<g transform="translate(0.000000,2251.000000) scale(0.100000,-0.100000)"
fill="#000000" stroke="none">
<path d="M1927 22504 c-1 -1 -52 -4 -114 -8 -61 -3 -118 -8 -125 -10 -7 -3
-31 -7 -53 -10 -74 -9 -219 -45 -320 -79 -407 -138 -766 -419 -1001 -783 -113
-175 -201 -375 -248 -565 -35 -140 -35 -141 -55 -313 -4 -38 -7 -4324 -6
-9525 1 -8878 2 -9462 19 -9561 68 -420 254 -786 546 -1078 213 -215 481 -381
758 -472 101 -33 152 -45 302 -75 14 -3 52 -9 85 -13 33 -4 4333 -7 9555 -7
7533 0 9509 3 9565 12 166 30 202 38 305 70 366 113 695 338 941 643 170 211
331 544 375 775 2 11 6 31 9 45 12 54 15 77 21 125 3 28 9 75 13 105 3 30 6
4305 5 9500 -1 8743 -2 9453 -18 9550 -21 137 -21 135 -51 245 -76 279 -223
553 -415 769 -79 89 -182 185 -282 261 -304 231 -648 361 -1030 391 -67 5
-18774 13 -18781 8z"/>
</g>
</svg>
